<?xml version="1.0" standalone="no"?>
<!DOCTYPE svg PUBLIC "-//W3C//DTD SVG 20010904//EN"
 "http://www.w3.org/TR/2001/REC-SVG-20010904/DTD/svg10.dtd">
<svg version="1.0" xmlns="http://www.w3.org/2000/svg"
 width="400.000000pt" height="100.000000pt" viewBox="0 0 400.000000 100.000000"
 preserveAspectRatio="xMidYMid meet">

<g transform="translate(0.000000,100.000000) scale(0.100000,-0.100000)"
fill="#000000" stroke="none">
<path d="M57 892 c-25 -27 -24 -153 1 -175 28 -25 172 -24 195 1 25 27 24 153
-1 175 -28 25 -172 24 -195 -1z"/>
<path d="M479 880 c-3 -30 -8 -35 -32 -38 -21 -3 -29 2 -36 20 l-10 23 0 -24
c-1 -21 -5 -23 -36 -19 -19 2 -35 0 -35 -4 0 -4 16 -8 35 -8 32 0 35 -2 35
-29 0 -27 -4 -30 -37 -34 l-38 -4 38 -1 c34 -2 37 -4 38 -34 2 -28 2 -29 6 -8
3 14 9 30 14 37 7 7 6 14 -1 18 -5 3 -10 17 -10 31 0 21 4 24 36 24 36 0 36
-1 32 -32 -3 -18 -1 -46 3 -63 7 -30 7 -30 8 -3 1 22 6 27 34 31 l32 4 -32 1
c-30 2 -33 5 -33 32 0 27 3 30 33 31 l32 1 -30 7 c-25 5 -31 12 -36 41 l-6 35
-4 -35z"/>
<path d="M815 895 c-2 -5 -8 -44 -14 -85 -11 -73 -16 -99 -45 -265 -8 -44 -12
-83 -10 -87 8 -12 272 -10 279 2 4 6 8 22 11 35 l4 25 -100 0 -100 0 1 43 c2
90 4 91 104 97 89 5 90 5 93 33 l3 27 -85 0 -86 0 1 28 c1 15 4 41 8 57 l6 30
105 5 105 5 3 31 3 30 -142 0 c-86 -1 -143 -5 -144 -11z"/>
<path d="M1264 895 c-45 -20 -102 -91 -119 -149 -21 -69 -19 -172 3 -216 39
-78 134 -102 222 -57 46 23 90 76 90 108 0 15 -8 19 -35 19 -28 0 -37 -5 -50
-31 -15 -29 -66 -59 -99 -59 -8 0 -27 10 -41 23 -23 19 -26 30 -26 87 -1 87
17 154 51 190 23 25 36 30 73 30 50 0 73 -16 83 -56 5 -19 13 -24 39 -24 46 0
50 13 25 66 -37 75 -133 105 -216 69z"/>
<path d="M1597 903 c-6 -10 -50 -250 -67 -363 -4 -30 -10 -62 -12 -70 -2 -11
6 -15 37 -14 l39 1 14 79 c8 43 16 81 18 83 1 1 18 5 37 8 42 5 44 2 77 -96
l25 -74 43 -4 c23 -2 42 0 42 5 0 4 -13 45 -30 90 -16 46 -30 86 -30 90 0 4
14 15 30 24 88 50 92 180 7 224 -37 20 -220 33 -230 17z m193 -83 c29 -29 25
-66 -9 -101 -26 -25 -37 -29 -86 -29 l-57 0 6 48 c15 107 11 102 72 102 41 0
59 -5 74 -20z"/>
<path d="M56 628 c-21 -30 -21 -136 0 -166 14 -20 24 -22 99 -22 107 0 115 7
115 101 0 106 -3 109 -110 109 -81 0 -90 -2 -104 -22z"/>
<path d="M347 632 c-25 -27 -24 -153 1 -175 28 -25 172 -24 195 1 25 27 24
153 -1 175 -28 25 -172 24 -195 -1z"/>
<path d="M2727 188 c-6 -21 -14 -28 -32 -28 -37 0 -64 -70 -32 -83 8 -3 12 7
12 32 0 29 4 36 20 36 21 0 22 -3 11 -47 -3 -16 -2 -28 3 -28 11 0 34 102 29
128 -3 12 -6 9 -11 -10z"/>
<path d="M2002 189 c14 -7 16 -20 13 -62 -5 -52 2 -40 19 35 4 17 14 28 29 31
12 2 0 5 -28 5 -37 1 -46 -1 -33 -9z"/>
<path d="M2456 163 c-3 -21 -5 -49 -5 -63 l1 -25 7 25 c14 44 20 100 12 100
-5 0 -11 -17 -15 -37z"/>
<path d="M3297 174 c-12 -40 -11 -104 1 -104 5 0 7 14 4 30 -2 17 1 37 8 45 8
9 8 20 2 31 -9 16 -10 16 -15 -2z"/>
<path d="M2364 156 c-17 -13 -17 -14 8 -9 26 5 26 4 21 -38 -4 -30 -3 -40 5
-35 16 10 15 71 -1 85 -10 8 -19 7 -33 -3z"/>
<path d="M2097 153 c-9 -9 -9 -71 1 -76 4 -3 8 15 9 39 2 45 1 49 -10 37z"/>
<path d="M2157 153 c-11 -19 -18 -88 -9 -78 12 11 27 85 19 85 -3 0 -8 -3 -10
-7z"/>
<path d="M2207 153 c-14 -13 -7 -32 14 -38 15 -5 19 -13 16 -27 -5 -16 -3 -17
10 -6 13 11 12 15 -11 33 -33 26 -33 33 2 38 l27 4 -26 2 c-14 0 -29 -2 -32
-6z"/>
<path d="M2504 126 c-3 -21 -4 -39 -1 -42 3 -4 9 10 13 30 3 21 4 39 1 42 -3
4 -9 -10 -13 -30z"/>
<path d="M2597 153 c9 -7 10 -18 3 -43 -10 -36 -6 -50 11 -33 15 15 7 76 -11
80 -11 3 -12 2 -3 -4z"/>
<path d="M2768 134 c-13 -28 -3 -54 23 -63 9 -3 9 1 -3 13 -20 20 -10 59 16
64 21 5 32 -26 17 -49 -7 -12 -8 -19 -1 -19 16 0 29 43 18 63 -14 27 -56 22
-70 -9z"/>
<path d="M2887 153 c-13 -13 -7 -32 13 -38 11 -3 20 -13 20 -21 0 -9 5 -12 12
-8 7 5 2 15 -17 30 -15 12 -24 27 -21 33 8 12 3 15 -7 4z"/>
<path d="M2910 156 c0 -2 7 -6 15 -10 8 -3 15 -1 15 4 0 6 -7 10 -15 10 -8 0
-15 -2 -15 -4z"/>
<path d="M3032 148 c-18 -18 -15 -53 6 -69 15 -12 15 -12 5 1 -17 22 -5 70 18
70 11 0 19 -7 19 -15 0 -8 5 -15 10 -15 6 0 10 4 10 8 0 14 -23 32 -40 32 -9
0 -21 -5 -28 -12z"/>
<path d="M3126 138 c-3 -13 -5 -34 -5 -48 0 -18 4 -12 15 20 16 54 16 50 5 50
-5 0 -11 -10 -15 -22z"/>
<path d="M3177 149 c6 -6 10 -28 7 -48 l-4 -36 11 32 c13 35 7 63 -13 63 -9 0
-9 -3 -1 -11z"/>
<path d="M3364 153 c-25 -18 -20 -83 7 -83 8 0 8 4 1 13 -5 6 -9 23 -7 37 2
33 41 41 48 10 4 -18 5 -18 3 2 -1 24 -31 35 -52 21z"/>
<path d="M3456 138 c-3 -13 -5 -34 -5 -48 1 -20 3 -18 13 13 6 21 18 42 26 47
12 8 11 10 -6 10 -14 0 -24 -8 -28 -22z"/>
<path d="M3524 133 c-3 -16 -7 -33 -9 -40 -2 -7 0 -15 4 -18 5 -2 12 11 15 30
4 19 14 39 24 44 15 9 14 10 -5 11 -17 0 -24 -7 -29 -27z"/>
<path d="M3602 148 c-18 -18 -15 -53 6 -69 15 -12 15 -12 5 1 -17 22 -5 70 18
70 13 0 19 -7 19 -22 0 -17 3 -19 12 -10 8 8 8 15 -2 27 -15 18 -41 20 -58 3z"/>
<path d="M3696 129 c-3 -17 -6 -39 -6 -48 1 -14 2 -14 9 -1 13 23 21 80 12 80
-5 0 -11 -14 -15 -31z"/>
<path d="M3747 153 c9 -3 11 -17 6 -45 -4 -30 -3 -39 5 -34 7 4 12 25 12 47 0
31 -4 39 -17 38 -11 0 -13 -3 -6 -6z"/>
<path d="M3810 141 c-14 -27 -13 -46 6 -61 13 -12 14 -10 3 13 -9 21 -9 30 1
42 28 34 62 6 40 -34 -6 -13 -7 -21 -1 -21 14 0 23 36 16 60 -8 26 -51 27 -65
1z"/>
<path d="M2343 104 c-3 -8 -2 -19 3 -24 5 -5 9 1 9 16 0 28 -3 30 -12 8z"/>
<path d="M2551 106 c-8 -10 -8 -16 1 -24 10 -8 13 -4 13 14 0 28 1 28 -14 10z"/>
</g>
</svg>
